<mxfile host="Electron" modified="2024-12-01T17:25:42.361Z" agent="Mozilla/5.0 (X11; Linux x86_64) AppleWebKit/537.36 (KHTML, like Gecko) draw.io/24.4.0 Chrome/120.0.6099.109 Electron/28.1.0 Safari/537.36" etag="mUSQNFcYxnqiZIQKCocB" version="24.4.0" type="device">
  <diagram name="Page-1" id="8QMIfXeSfWOVVvD7jy9T">
    <mxGraphModel dx="2074" dy="1399" grid="1" gridSize="10" guides="1" tooltips="1" connect="1" arrows="1" fold="1" page="1" pageScale="1" pageWidth="1169" pageHeight="827" math="0" shadow="0">
      <root>
        <mxCell id="0" />
        <mxCell id="1" parent="0" />
        <mxCell id="OL8X5_Lhm7_GcHFO9JmR-1" value="début" style="ellipse;whiteSpace=wrap;html=1;" parent="1" vertex="1">
          <mxGeometry x="525" y="100" width="120" height="80" as="geometry" />
        </mxCell>
        <mxCell id="OL8X5_Lhm7_GcHFO9JmR-7" style="edgeStyle=orthogonalEdgeStyle;rounded=0;orthogonalLoop=1;jettySize=auto;html=1;exitX=0.5;exitY=1;exitDx=0;exitDy=0;entryX=0.5;entryY=0;entryDx=0;entryDy=0;" parent="1" target="OL8X5_Lhm7_GcHFO9JmR-10" edge="1">
          <mxGeometry relative="1" as="geometry">
            <mxPoint x="585" y="180" as="sourcePoint" />
            <mxPoint x="585" y="210" as="targetPoint" />
          </mxGeometry>
        </mxCell>
        <mxCell id="OL8X5_Lhm7_GcHFO9JmR-12" style="edgeStyle=orthogonalEdgeStyle;rounded=0;orthogonalLoop=1;jettySize=auto;html=1;" parent="1" source="OL8X5_Lhm7_GcHFO9JmR-10" target="OL8X5_Lhm7_GcHFO9JmR-11" edge="1">
          <mxGeometry relative="1" as="geometry" />
        </mxCell>
        <mxCell id="OL8X5_Lhm7_GcHFO9JmR-13" value="Non" style="edgeLabel;html=1;align=center;verticalAlign=middle;resizable=0;points=[];" parent="OL8X5_Lhm7_GcHFO9JmR-12" vertex="1" connectable="0">
          <mxGeometry x="-0.6886" y="1" relative="1" as="geometry">
            <mxPoint as="offset" />
          </mxGeometry>
        </mxCell>
        <mxCell id="OL8X5_Lhm7_GcHFO9JmR-21" style="edgeStyle=orthogonalEdgeStyle;rounded=0;orthogonalLoop=1;jettySize=auto;html=1;entryX=0;entryY=0.5;entryDx=0;entryDy=0;" parent="1" source="OL8X5_Lhm7_GcHFO9JmR-10" target="OL8X5_Lhm7_GcHFO9JmR-20" edge="1">
          <mxGeometry relative="1" as="geometry" />
        </mxCell>
        <mxCell id="OL8X5_Lhm7_GcHFO9JmR-22" value="oui" style="edgeLabel;html=1;align=center;verticalAlign=middle;resizable=0;points=[];" parent="OL8X5_Lhm7_GcHFO9JmR-21" vertex="1" connectable="0">
          <mxGeometry x="-0.5993" y="1" relative="1" as="geometry">
            <mxPoint as="offset" />
          </mxGeometry>
        </mxCell>
        <mxCell id="OL8X5_Lhm7_GcHFO9JmR-10" value="liste entièrement traitée?" style="rhombus;whiteSpace=wrap;html=1;" parent="1" vertex="1">
          <mxGeometry x="527" y="214" width="115" height="80" as="geometry" />
        </mxCell>
        <mxCell id="OL8X5_Lhm7_GcHFO9JmR-11" value="ajouter le calcul sur le point suivant au résultat" style="rounded=0;whiteSpace=wrap;html=1;" parent="1" vertex="1">
          <mxGeometry x="525" y="344" width="120" height="60" as="geometry" />
        </mxCell>
        <mxCell id="OL8X5_Lhm7_GcHFO9JmR-15" value="+= ((x*y&lt;sub&gt;-1&lt;/sub&gt;)-(x&lt;sub&gt;+1&lt;/sub&gt;*y))/2" style="ellipse;shape=cloud;whiteSpace=wrap;html=1;" parent="1" vertex="1">
          <mxGeometry x="700" y="334" width="160" height="80" as="geometry" />
        </mxCell>
        <mxCell id="OL8X5_Lhm7_GcHFO9JmR-16" style="edgeStyle=orthogonalEdgeStyle;rounded=0;orthogonalLoop=1;jettySize=auto;html=1;exitX=1;exitY=0.5;exitDx=0;exitDy=0;entryX=0.087;entryY=0.498;entryDx=0;entryDy=0;entryPerimeter=0;endArrow=none;endFill=0;dashed=1;" parent="1" source="OL8X5_Lhm7_GcHFO9JmR-11" target="OL8X5_Lhm7_GcHFO9JmR-15" edge="1">
          <mxGeometry relative="1" as="geometry" />
        </mxCell>
        <mxCell id="OL8X5_Lhm7_GcHFO9JmR-19" value="" style="endArrow=classic;html=1;rounded=0;entryX=0;entryY=0.5;entryDx=0;entryDy=0;exitX=0.5;exitY=1;exitDx=0;exitDy=0;" parent="1" source="OL8X5_Lhm7_GcHFO9JmR-11" target="OL8X5_Lhm7_GcHFO9JmR-10" edge="1">
          <mxGeometry width="50" height="50" relative="1" as="geometry">
            <mxPoint x="590" y="330" as="sourcePoint" />
            <mxPoint x="640" y="280" as="targetPoint" />
            <Array as="points">
              <mxPoint x="585" y="440" />
              <mxPoint x="480" y="440" />
              <mxPoint x="480" y="254" />
            </Array>
          </mxGeometry>
        </mxCell>
        <mxCell id="m5G2WQtokJqIElg-wCpU-2" style="edgeStyle=orthogonalEdgeStyle;rounded=0;orthogonalLoop=1;jettySize=auto;html=1;exitX=1;exitY=0.5;exitDx=0;exitDy=0;entryX=0;entryY=0.5;entryDx=0;entryDy=0;" parent="1" source="OL8X5_Lhm7_GcHFO9JmR-20" target="m5G2WQtokJqIElg-wCpU-1" edge="1">
          <mxGeometry relative="1" as="geometry" />
        </mxCell>
        <mxCell id="OL8X5_Lhm7_GcHFO9JmR-20" value="retourner le résultat" style="rounded=0;whiteSpace=wrap;html=1;" parent="1" vertex="1">
          <mxGeometry x="700" y="224" width="120" height="60" as="geometry" />
        </mxCell>
        <mxCell id="m5G2WQtokJqIElg-wCpU-1" value="fin" style="ellipse;whiteSpace=wrap;html=1;" parent="1" vertex="1">
          <mxGeometry x="860" y="214" width="120" height="80" as="geometry" />
        </mxCell>
      </root>
    </mxGraphModel>
  </diagram>
</mxfile>
